<svg width="94" height="116" viewBox="0 0 94 116" fill="none" xmlns="http://www.w3.org/2000/svg">
<path d="M70.5 116C67.3915 114.358 64.4696 112.268 61.7341 109.73C59.123 107.192 56.6984 104.505 54.4603 101.668L53.1548 103.012L52.7817 104.579H52.2222L50.9167 103.012L50.1706 104.355L49.7976 107.714L47 108.834L47.373 106.595C46.8757 107.341 46.3161 108.013 45.6945 108.61C45.0728 109.207 44.3889 109.879 43.6429 110.625L40.2857 110.849L40.4722 108.834L37.4881 112.193V111.969L38.2341 110.625L36.1825 110.849L35.8095 111.745L35.25 110.849L34.877 111.969L31.3333 112.865L30.5873 112.193L27.6032 114.432L27.4167 113.537L28.5357 113.313V112.865L26.4841 112.641L25.3651 113.985H24.246C23.7487 113.985 23.2513 113.91 22.754 113.761C22.2566 113.761 21.7593 113.686 21.2619 113.537L20.5159 112.641L19.7698 112.417L17.3452 113.313L16.0397 112.193L14.9206 112.865H14.3611C13.6151 112.865 12.9934 112.268 12.496 111.073C11.9987 109.879 11.6878 108.983 11.5635 108.386L10.4444 110.849C9.3254 110.551 8.14418 109.73 6.90079 108.386C5.78175 106.893 4.84921 105.624 4.10318 104.579C3.73016 101.145 2.92196 97.861 1.67857 94.7259C0.559524 91.5907 0 88.3063 0 84.8726C0 80.5431 0.93254 76.5122 2.79762 72.7799C4.78704 69.0476 7.27381 65.6139 10.2579 62.4788C13.2421 59.3436 16.2884 56.4324 19.3968 53.7452C22.6296 51.0579 25.4894 48.52 27.9762 46.1313C26.8571 42.2497 26.2976 38.3681 26.2976 34.4865C26.2976 29.5598 27.168 24.7825 28.9087 20.1544C30.7738 15.5264 33.2606 11.4955 36.369 8.06177C39.6019 4.62805 43.2077 2.31403 47.1865 1.11969L48.4921 1.34362C49.1138 1.34362 49.7355 1.26898 50.3572 1.11969C50.9788 0.970396 51.6005 0.895746 52.2222 0.895746C53.3413 0.895746 54.3982 1.34362 55.3929 2.23938C56.5119 3.13513 57.3201 4.10553 57.8175 5.15058L57.0714 6.04633L55.2064 4.25482L54.4603 4.47876L53.1548 3.583H51.1032C45.7566 3.583 41.7778 5.97168 39.1667 10.749C36.6799 15.5264 35.25 20.7516 34.877 26.4247L35.25 28.6641L34.504 30.9035L33.5714 30.6795L33.1984 31.3513L33.7579 32.9189L34.3175 32.2471L35.623 40.7568L38.2341 38.7413L40.2857 40.0849L40.6587 36.9498C42.3995 35.6062 44.6376 33.74 47.373 31.3513C50.2328 28.9627 53.0304 26.3501 55.7659 23.5135C58.6257 20.677 60.9881 17.7658 62.8532 14.7799C64.8426 11.7941 65.8373 8.95753 65.8373 6.27027L64.9048 4.03088H63.7857C63.4127 3.28442 62.9153 2.68725 62.2937 2.23938C61.7963 1.7915 61.2368 1.34363 60.6151 0.895746L63.0397 0L66.9564 0.671808C69.3188 3.06048 71.619 5.22522 73.8571 7.16602C76.0952 8.95753 77.2143 12.018 77.2143 16.3475C77.2143 19.9305 75.6601 23.5882 72.5516 27.3205C69.5675 31.0528 65.8373 34.7104 61.3611 38.2934C56.8849 41.7272 52.5331 44.7876 48.3056 47.4749C44.078 50.0129 40.7209 51.9537 38.2341 53.2973L38.0476 54.1931C38.0476 55.3874 38.4828 57.4028 39.3532 60.2394C40.2235 62.9266 41.1561 65.6885 42.1508 68.5251C43.1455 71.2124 43.8294 73.2278 44.2024 74.5714L45.3214 75.6911L45.6945 78.1544C46.9378 79.1995 48.0569 80.991 49.0516 83.529C50.1706 85.9176 51.2897 88.381 52.4087 90.9189C53.6521 93.4569 54.9577 95.547 56.3254 97.1892C57.9418 97.0399 59.4339 96.4427 60.8016 95.3977C62.1693 94.2033 63.537 93.3076 64.9048 92.7104L65.2778 92.9344C66.2725 92.0386 67.205 90.9936 68.0754 89.7992C68.9458 88.4556 70.0026 87.6345 71.246 87.3359L72.1786 86.2162L71.4325 85.7683C70.4378 87.2613 69.1323 88.4556 67.5159 89.3513C65.8995 90.2471 64.5318 91.3668 63.4127 92.7104L62.6667 92.2626C64.9048 89.426 67.578 86.1416 70.6865 82.4093C73.795 78.677 76.4683 74.7207 78.7064 70.5405C81.0688 66.2111 82.25 61.9562 82.25 57.7761C82.25 56.4324 82.1257 55.0142 81.877 53.5212C81.6283 51.879 80.8823 50.7593 79.6389 50.1622L78.3333 50.3861L77.0278 49.0425L78.8929 47.9228C82.1257 48.5199 84.2394 50.0875 85.2341 52.6255C86.3532 55.0142 87.037 57.7761 87.2857 60.9112C87.6587 63.897 88.1561 66.7336 88.7778 69.4209L87.2857 71.8842L87.8452 72.332L86.5397 73.6757C86.291 75.3179 85.4206 76.8855 83.9286 78.3784C83.9286 79.1248 83.3069 80.2445 82.0635 81.7374C80.8201 83.2304 79.328 84.7979 77.5873 86.4402C75.8466 87.9331 74.168 89.2767 72.5516 90.471C71.0595 91.6654 69.9405 92.4865 69.1944 92.9344L68.8214 92.4865C66.9564 93.3822 65.8373 95.0245 65.4643 97.4131L64.5318 97.6371L63.9722 96.7413C63.4749 97.3385 62.9153 97.9357 62.2937 98.5328C61.7963 99.13 61.299 99.8018 60.8016 100.548L59.496 99.2046L58.75 99.4286V100.548C60.6151 102.638 62.6667 104.355 64.9048 105.699C67.2672 106.893 69.754 107.49 72.3651 107.49C76.4683 107.49 80.2606 106.296 83.7421 103.907C87.2235 101.519 90.4564 98.7568 93.4405 95.6216L94 96.7413C92.2593 99.5779 90.6429 102.041 89.1508 104.131C87.6587 106.072 85.545 108.013 82.8095 109.954L82.623 110.849L81.6905 111.745L81.3175 111.073L80.1984 111.969L80.5714 113.089C79.4524 114.283 78.1468 115.254 76.6548 116L75.5357 115.552L70.5 116ZM44.0159 39.6371C45.0106 38.8906 45.8188 37.9948 46.4405 36.9498C47.0622 35.7555 47.8082 34.7104 48.6786 33.8147H48.4921L44.9484 36.278L45.1349 36.9498L44.7619 37.3977L43.8294 36.7259L42.7103 38.0695L44.0159 39.6371ZM36.7421 42.3243L38.4206 41.6525L38.6071 40.7568H38.2341L36.7421 42.3243ZM23.873 54.417C25.7381 53.3719 26.8571 51.5804 27.2302 49.0425L25.1786 50.834L23.5 53.7452L23.873 54.417ZM33.3849 56.6564L34.6905 54.6409L34.504 53.7452C34.2553 54.0438 34.0066 54.4916 33.7579 55.0888C33.6336 55.686 33.5093 56.2085 33.3849 56.6564ZM22.381 109.282C22.8783 108.983 23.3135 108.685 23.6865 108.386C24.1839 108.088 24.6812 107.864 25.1786 107.714L25.7381 106.595L25.9246 106.819L27.6032 106.595L28.1627 107.266C28.9087 106.819 29.6548 106.445 30.4008 106.147C31.1468 105.848 31.955 105.699 32.8254 105.699L33.5714 106.147L35.25 105.251L35.8095 105.923L38.6071 104.579L40.6587 105.475C41.6534 105.027 42.586 104.505 43.4564 103.907C44.3267 103.31 45.2593 102.937 46.254 102.788L47.373 103.012C48.1191 101.519 49.3003 100.772 50.9167 100.772L52.7817 98.9807L51.1032 96.9653L50.9167 96.0695C48.9273 92.6358 47 89.2021 45.1349 85.7683C43.2698 82.1853 41.2804 78.7516 39.1667 75.4672V74.5714C38.6693 73.3771 38.1098 72.2574 37.4881 71.2124C36.8664 70.018 36.1204 69.1223 35.25 68.5251V66.7336C35.25 64.9421 34.8148 63.3745 33.9444 62.0309C33.0741 60.538 32.3902 59.045 31.8929 57.5521C31.8929 58.8958 31.2712 59.5676 30.0278 59.5676C29.5304 59.5676 28.4114 60.314 26.6706 61.8069C25.0542 63.2999 23.4378 64.8674 21.8214 66.5097C20.205 68.1519 19.086 69.2716 18.4643 69.8687L17.9048 70.9884C16.164 72.7799 14.2368 74.9447 12.123 77.4826C10.1336 79.8713 8.39286 82.4839 6.90079 85.3205C5.53307 88.157 4.84921 91.0682 4.84921 94.0541C4.84921 96.7413 5.71958 98.9807 7.46032 100.772C9.20106 102.414 10.9418 103.758 12.6825 104.803H13.6151L15.8532 106.371L18.0913 105.699L20.3294 106.819L22.381 109.282ZM3.17063 78.6023V76.5869L3.73016 75.2432L2.61111 75.9151L1.67857 77.7066L3.17063 78.6023ZM21.8214 107.49L22.9405 106.147L23.5 106.819L21.8214 107.49ZM67.3294 109.73L67.5159 109.282L66.7699 108.834V109.282L67.3294 109.73ZM79.6389 111.073C80.7579 111.073 81.5661 110.625 82.0635 109.73C81.3175 110.476 80.5093 110.924 79.6389 111.073Z" fill="#F3DDB6"/>
</svg>
